<svg xmlns="http://www.w3.org/2000/svg" viewBox="0 0 127.44 252.68"><title>Phone_10</title><g id="Layer_2" data-name="Layer 2"><g id="Wireframe_Templates" data-name="Wireframe Templates"><path d="M107.34,250.21H20A16.13,16.13,0,0,1,3.89,234.09V18.58A16.13,16.13,0,0,1,20,2.47h87.34a16.13,16.13,0,0,1,16.11,16.11V234.09A16.13,16.13,0,0,1,107.34,250.21ZM20,2.87A15.73,15.73,0,0,0,4.28,18.58V234.09A15.74,15.74,0,0,0,20,249.81h87.34a15.74,15.74,0,0,0,15.72-15.72V18.58A15.74,15.74,0,0,0,107.34,2.87Z" fill="#e6e6e6"/><path d="M108.18,246.56h-89a12,12,0,0,1-12-12V18.15a12,12,0,0,1,12-12h89a12,12,0,0,1,12,12V234.53A12,12,0,0,1,108.18,246.56ZM19.16,6.91A11.25,11.25,0,0,0,7.92,18.15V234.53a11.25,11.25,0,0,0,11.24,11.24h89a11.25,11.25,0,0,0,11.24-11.24V18.15A11.25,11.25,0,0,0,108.18,6.91Z"/><path d="M108.18,246.56h-89a12,12,0,0,1-12-12V18.15a12,12,0,0,1,12-12h89a12,12,0,0,1,12,12V234.53A12,12,0,0,1,108.18,246.56ZM19.16,6.91A11.25,11.25,0,0,0,7.92,18.15V234.53a11.25,11.25,0,0,0,11.24,11.24h89a11.25,11.25,0,0,0,11.24-11.24V18.15A11.25,11.25,0,0,0,108.18,6.91Z" fill="#e6e6e6"/><g id="background"><path d="M107.32,252.68H20A18.83,18.83,0,0,1,1.21,233.87V94.72a2.24,2.24,0,0,1-1.21-2V76.89a2.25,2.25,0,0,1,1.21-2V70.85a2.25,2.25,0,0,1-1.21-2V53a2.24,2.24,0,0,1,1.21-2V44.34a2.24,2.24,0,0,1-1.21-2V36.12a2.22,2.22,0,0,1,1.21-2V18.8A18.83,18.83,0,0,1,20,0h87.3a18.82,18.82,0,0,1,18.8,18.8V58a2.24,2.24,0,0,1,1.32,2V86.57a2.24,2.24,0,0,1-1.32,2V233.87A18.83,18.83,0,0,1,107.32,252.68ZM20,.89A17.93,17.93,0,0,0,2.1,18.8v16l-.3.1a1.32,1.32,0,0,0-.91,1.27v6.24a1.34,1.34,0,0,0,.91,1.27l.3.1v7.91l-.3.1A1.34,1.34,0,0,0,.89,53V68.86a1.32,1.32,0,0,0,.91,1.27l.3.11v5.27l-.3.11a1.32,1.32,0,0,0-.91,1.27V92.74A1.34,1.34,0,0,0,1.8,94l.3.1V233.87A17.94,17.94,0,0,0,20,251.79h87.3a17.94,17.94,0,0,0,17.92-17.92V88l.32-.09a1.34,1.34,0,0,0,1-1.29V60a1.34,1.34,0,0,0-1-1.29l-.32-.09V18.8A17.93,17.93,0,0,0,107.32.89Z" fill="#e6e6e6"/></g><path d="M70.32,12.32H56.91a1.18,1.18,0,0,1-1.18-1.18v-.06A1.18,1.18,0,0,1,56.91,9.9H70.32a1.18,1.18,0,0,1,1.18,1.18v.06A1.18,1.18,0,0,1,70.32,12.32Zm-13.41-2a.78.78,0,0,0-.79.78v.06a.79.79,0,0,0,.79.79H70.32a.79.79,0,0,0,.78-.79v-.06a.78.78,0,0,0-.78-.78Z" fill="#e6e6e6"/><path d="M78.38,13.48a2.37,2.37,0,1,1,2.37-2.37A2.38,2.38,0,0,1,78.38,13.48Zm0-4.35a2,2,0,1,0,2,2A2,2,0,0,0,78.38,9.13Z" fill="#e6e6e6"/><path d="M40.34,13.48a2.37,2.37,0,0,1-2.26-1.64h0a2.37,2.37,0,1,1,3,1.53A2.31,2.31,0,0,1,40.34,13.48Zm-1.88-1.76a2,2,0,1,0,1.27-2.49,2,2,0,0,0-1.27,2.49Z" fill="#e6e6e6"/><path d="M87.19,15.71H39.85a7.43,7.43,0,0,1-7.43-7.43A1.27,1.27,0,0,0,31.15,7V6.22a2.07,2.07,0,0,1,2.06,2.06,6.65,6.65,0,0,0,6.64,6.64H87.19a6.65,6.65,0,0,0,6.64-6.64,2.06,2.06,0,0,1,2.06-2.06V7a1.28,1.28,0,0,0-1.28,1.27A7.43,7.43,0,0,1,87.19,15.71Z" fill="#e6e6e6"/><path d="M85.62,13.27a2.16,2.16,0,1,1,2.16-2.16A2.16,2.16,0,0,1,85.62,13.27Zm0-4a1.81,1.81,0,1,0,1.8,1.8A1.81,1.81,0,0,0,85.62,9.31Z" fill="#e6e6e6"/></g></g></svg>